{
    "programs": [

    ],
    "streams": [
        {
            "index": 0,
            "codec_name": "h264",
            "codec_long_name": "H.264 / AVC / MPEG-4 AVC / MPEG-4 part 10",
            "profile": "High",
            "codec_type": "video",
            "codec_time_base": "1001/48000",
            "codec_tag_string": "[0][0][0][0]",
            "codec_tag": "0x0000",
            "width": 1920,
            "height": 1080,
            "has_b_frames": 2,
            "sample_aspect_ratio": "1:1",
            "display_aspect_ratio": "16:9",
            "pix_fmt": "yuv420p",
            "level": 50,
            "chroma_location": "left",
            "refs": 8,
            "is_avc": "1",
            "nal_length_size": "4",
            "r_frame_rate": "24000/1001",
            "avg_frame_rate": "24000/1001",
            "time_base": "1/1000",
            "start_pts": 0,
            "start_time": "0.000000",
            "bits_per_raw_sample": "8",
            "disposition": {
                "default": 1,
                "dub": 0,
                "original": 0,
                "comment": 0,
                "lyrics": 0,
                "karaoke": 0,
                "forced": 0,
                "hearing_impaired": 0,
                "visual_impaired": 0,
                "clean_effects": 0,
                "attached_pic": 0
            },
            "tags": {
                "language": "jpn"
            }
        },
        {
            "index": 1,
            "codec_name": "dca",
            "codec_long_name": "DCA (DTS Coherent Acoustics)",
            "profile": "DTS",
            "codec_type": "audio",
            "codec_time_base": "1/48000",
            "codec_tag_string": "[0][0][0][0]",
            "codec_tag": "0x0000",
            "sample_fmt": "fltp",
            "sample_rate": "48000",
            "channels": 6,
            "channel_layout": "5.1(side)",
            "bits_per_sample": 0,
            "r_frame_rate": "0/0",
            "avg_frame_rate": "0/0",
            "time_base": "1/1000",
            "start_pts": 0,
            "start_time": "0.000000",
            "bit_rate": "1536000",
            "disposition": {
                "default": 1,
                "dub": 0,
                "original": 0,
                "comment": 0,
                "lyrics": 0,
                "karaoke": 0,
                "forced": 0,
                "hearing_impaired": 0,
                "visual_impaired": 0,
                "clean_effects": 0,
                "attached_pic": 0
            },
            "tags": {
                "language": "jpn"
            }
        },
        {
            "index": 2,
            "codec_name": "ass",
            "codec_long_name": "ASS (Advanced SubStation Alpha) subtitle",
            "codec_type": "subtitle",
            "codec_time_base": "1/1000",
            "codec_tag_string": "[0][0][0][0]",
            "codec_tag": "0x0000",
            "r_frame_rate": "0/0",
            "avg_frame_rate": "0/0",
            "time_base": "1/1000",
            "start_pts": 0,
            "start_time": "0.000000",
            "duration_ts": 6514508,
            "duration": "6514.508000",
            "disposition": {
                "default": 1,
                "dub": 0,
                "original": 0,
                "comment": 0,
                "lyrics": 0,
                "karaoke": 0,
                "forced": 0,
                "hearing_impaired": 0,
                "visual_impaired": 0,
                "clean_effects": 0,
                "attached_pic": 0
            },
            "tags": {
                "language": "eng"
            }
        },
        {
            "index": 3,
            "codec_type": "attachment",
            "codec_time_base": "0/1",
            "codec_tag_string": "[0][0][0][0]",
            "codec_tag": "0x0000",
            "r_frame_rate": "0/0",
            "avg_frame_rate": "0/0",
            "time_base": "1/90000",
            "start_pts": 0,
            "start_time": "0.000000",
            "duration_ts": 586305720,
            "duration": "6514.508000",
            "disposition": {
                "default": 0,
                "dub": 0,
                "original": 0,
                "comment": 0,
                "lyrics": 0,
                "karaoke": 0,
                "forced": 0,
                "hearing_impaired": 0,
                "visual_impaired": 0,
                "clean_effects": 0,
                "attached_pic": 0
            },
            "tags": {
                "filename": "TCCEB.TTF",
                "mimetype": "application/x-truetype-font"
            }
        },
        {
            "index": 4,
            "codec_type": "attachment",
            "codec_time_base": "0/1",
            "codec_tag_string": "[0][0][0][0]",
            "codec_tag": "0x0000",
            "r_frame_rate": "0/0",
            "avg_frame_rate": "0/0",
            "time_base": "1/90000",
            "start_pts": 0,
            "start_time": "0.000000",
            "duration_ts": 586305720,
            "duration": "6514.508000",
            "disposition": {
                "default": 0,
                "dub": 0,
                "original": 0,
                "comment": 0,
                "lyrics": 0,
                "karaoke": 0,
                "forced": 0,
                "hearing_impaired": 0,
                "visual_impaired": 0,
                "clean_effects": 0,
                "attached_pic": 0
            },
            "tags": {
                "filename": "Montara-BoldGothic.ttf",
                "mimetype": "application/x-truetype-font"
            }
        },
        {
            "index": 5,
            "codec_type": "attachment",
            "codec_time_base": "0/1",
            "codec_tag_string": "[0][0][0][0]",
            "codec_tag": "0x0000",
            "r_frame_rate": "0/0",
            "avg_frame_rate": "0/0",
            "time_base": "1/90000",
            "start_pts": 0,
            "start_time": "0.000000",
            "duration_ts": 586305720,
            "duration": "6514.508000",
            "disposition": {
                "default": 0,
                "dub": 0,
                "original": 0,
                "comment": 0,
                "lyrics": 0,
                "karaoke": 0,
                "forced": 0,
                "hearing_impaired": 0,
                "visual_impaired": 0,
                "clean_effects": 0,
                "attached_pic": 0
            },
            "tags": {
                "filename": "Prototype.ttf",
                "mimetype": "application/x-truetype-font"
            }
        },
        {
            "index": 6,
            "codec_type": "attachment",
            "codec_time_base": "0/1",
            "codec_tag_string": "[0][0][0][0]",
            "codec_tag": "0x0000",
            "r_frame_rate": "0/0",
            "avg_frame_rate": "0/0",
            "time_base": "1/90000",
            "start_pts": 0,
            "start_time": "0.000000",
            "duration_ts": 586305720,
            "duration": "6514.508000",
            "disposition": {
                "default": 0,
                "dub": 0,
                "original": 0,
                "comment": 0,
                "lyrics": 0,
                "karaoke": 0,
                "forced": 0,
                "hearing_impaired": 0,
                "visual_impaired": 0,
                "clean_effects": 0,
                "attached_pic": 0
            },
            "tags": {
                "filename": "Montara-BoldGothic.ttf",
                "mimetype": "application/x-truetype-font"
            }
        },
        {
            "index": 7,
            "codec_type": "attachment",
            "codec_time_base": "0/1",
            "codec_tag_string": "[0][0][0][0]",
            "codec_tag": "0x0000",
            "r_frame_rate": "0/0",
            "avg_frame_rate": "0/0",
            "time_base": "1/90000",
            "start_pts": 0,
            "start_time": "0.000000",
            "duration_ts": 586305720,
            "duration": "6514.508000",
            "disposition": {
                "default": 0,
                "dub": 0,
                "original": 0,
                "comment": 0,
                "lyrics": 0,
                "karaoke": 0,
                "forced": 0,
                "hearing_impaired": 0,
                "visual_impaired": 0,
                "clean_effects": 0,
                "attached_pic": 0
            },
            "tags": {
                "filename": "Prototype.ttf",
                "mimetype": "application/x-truetype-font"
            }
        },
        {
            "index": 8,
            "codec_type": "attachment",
            "codec_time_base": "0/1",
            "codec_tag_string": "[0][0][0][0]",
            "codec_tag": "0x0000",
            "r_frame_rate": "0/0",
            "avg_frame_rate": "0/0",
            "time_base": "1/90000",
            "start_pts": 0,
            "start_time": "0.000000",
            "duration_ts": 586305720,
            "duration": "6514.508000",
            "disposition": {
                "default": 0,
                "dub": 0,
                "original": 0,
                "comment": 0,
                "lyrics": 0,
                "karaoke": 0,
                "forced": 0,
                "hearing_impaired": 0,
                "visual_impaired": 0,
                "clean_effects": 0,
                "attached_pic": 0
            },
            "tags": {
                "filename": "TCCEB.TTF",
                "mimetype": "application/x-truetype-font"
            }
        }
    ],
    "chapters": [

    ],
    "format": {
        "filename": "Ghost_in_the_Shell_S.A.C_Solid_State_Society_[1080p,BluRay,x264,DTS]_-_THORA.mkv",
        "nb_streams": 9,
        "nb_programs": 0,
        "format_name": "matroska,webm",
        "format_long_name": "Matroska / WebM",
        "start_time": "0.000000",
        "duration": "6514.508000",
        "size": "7026154656",
        "bit_rate": "8628316",
        "probe_score": 100,
        "tags": {
            "title": "Ghost in the Shell: Stand Alone Complex - Solid State Society",
            "encoder": "libebml v0.7.7 + libmatroska v0.8.1",
            "creation_time": "2008-08-19 04:10:48"
        }
    }
}
